<?xml version="1.0" encoding="UTF-8" standalone="no"?>
<!DOCTYPE svg PUBLIC "-//W3C//DTD SVG 1.1//EN" "http://www.w3.org/Graphics/SVG/1.1/DTD/svg11.dtd">
<svg width="100%" height="100%" viewBox="0 0 1254 497" version="1.1" xmlns="http://www.w3.org/2000/svg" xmlns:xlink="http://www.w3.org/1999/xlink" xml:space="preserve" xmlns:serif="http://www.serif.com/" style="fill-rule:evenodd;clip-rule:evenodd;stroke-linejoin:round;stroke-miterlimit:2;">
    <g transform="matrix(1,0,0,1,-1144.95,-1412.89)">
        <g transform="matrix(0.486654,0,0,0.486654,931.022,778.738)">
            <g transform="matrix(0.789294,0,0,0.81626,284.648,398.52)">
                <path d="M931.873,2119.24C927.123,2123.78 911.973,2138.31 907.935,2142.46C838.314,2213.98 748.001,2243.09 644.1,2225.48C564.549,2212 460.073,2178.05 384.693,2119.05C382,2116.95 379.345,2114.8 376.728,2112.63C538.62,2093.62 733.742,1982.67 798.053,1829.12C872.958,1650.26 729.184,1467.34 549.902,1452.87C522.115,1450.62 488.424,1444.25 457.049,1445.55C427.445,1446.78 399.629,1454.16 376.317,1470.82C350.835,1489.03 322.296,1525.53 297.515,1569.13C263.921,1628.24 235.854,1700.14 226.259,1745.14C209.382,1824.3 188.265,1916.05 199.695,1997.53C210.913,2077.5 257.846,2142.81 322.467,2193.39C411.113,2262.77 533.476,2303.83 627.026,2319.68C766.087,2343.25 886.773,2303.73 979.952,2208.01C986.51,2201.27 1003.7,2187.03 1013.66,2173.62C1024.37,2159.18 1029.11,2144.04 1029.11,2131.54C1029.11,2105.15 1006.95,2083.72 979.661,2083.72C956.768,2083.72 937.487,2098.8 931.873,2119.24ZM308.347,2024.27C314.623,2021.46 321.61,2019.9 328.971,2019.9C464.33,2019.9 649.692,1928.58 706.382,1793.22C755.44,1676.08 659.087,1557.65 541.672,1548.17C520.797,1546.48 496.26,1541.86 472.289,1541.08C458.925,1540.64 445.45,1540.34 435.102,1547.73C417.993,1559.96 400.83,1585.91 384.191,1615.19C355.662,1665.39 331.272,1726.23 323.124,1764.45C308.382,1833.6 287.715,1913.5 297.699,1984.67C299.649,1998.58 303.284,2011.76 308.347,2024.27Z"/>
            </g>
            <g transform="matrix(0.789294,0,0,0.752291,280.744,539.995)">
                <path d="M1252.86,1547.95L1252.86,1542.08C1252.86,1513.45 1230.7,1490.2 1203.41,1490.2C1176.12,1490.2 1153.96,1513.45 1153.96,1542.08L1153.96,1776.89C1140.42,1848.48 1136.52,1925.4 1136.52,2005.3C1136.52,2088.78 1138.69,2172.47 1138.69,2255.79C1138.69,2253.43 1139.38,2248.12 1139.38,2248.12C1139.38,2248.12 1140.44,2296.31 1157.86,2310.47C1172.72,2322.55 1188.62,2324.6 1205.32,2318.14C1210.85,2316 1227.85,2309.46 1235.54,2284.95C1237.69,2278.07 1243.22,2238.71 1243.22,2229.19C1243.22,2197.14 1236.79,2164.75 1236.79,2132.16C1236.79,2037.87 1252.86,1945.23 1252.86,1851.4L1252.86,1786.6C1277.43,1670.34 1335.2,1572.11 1467.62,1509.63C1488.01,1500.01 1512.17,1480.44 1534.91,1476.34C1598.28,1464.93 1662.96,1470.54 1727.46,1470.54C1754.75,1470.54 1776.91,1447.29 1776.91,1418.66C1776.91,1390.02 1754.75,1366.77 1727.46,1366.77C1657.34,1366.77 1587.08,1361.67 1518.19,1374.07C1487.88,1379.53 1454.22,1402.18 1427.06,1414.99C1351.24,1450.77 1294.75,1495.75 1252.86,1547.95Z"/>
            </g>
            <g transform="matrix(0.884812,-0.128168,0.130897,0.90365,-83.5759,306.749)">
                <path d="M1990.85,1771.86C1992.01,1767.63 1998.26,1745.19 2004.45,1729.64C2016.76,1698.74 2042.73,1651.89 2044.28,1649.1C2073.43,1621.81 2093.8,1597.07 2114.2,1577.46C2128.77,1563.47 2142.96,1552.54 2164.05,1547.91C2185.27,1543.26 2212.08,1544.25 2249.31,1550.74C2277.28,1555.62 2331.2,1560.35 2378.98,1571.61C2401.82,1577 2423.42,1582.92 2436.66,1593.2C2444.63,1603.58 2457.31,1610.3 2471.58,1610.3C2497.23,1610.3 2505.74,1596.39 2508.96,1591.94C2515.79,1582.49 2518.26,1572.1 2516.52,1560.76C2515.78,1555.96 2494.05,1529.08 2494.05,1529.08C2494.05,1529.08 2496.95,1531.17 2498.1,1532.2C2476.53,1512.87 2440.07,1498.08 2399.42,1488.5C2349.74,1476.78 2293.7,1471.64 2264.61,1466.57C2212.39,1457.47 2174.73,1457.96 2144.95,1464.49C2106.54,1472.92 2079.57,1490.96 2053.04,1516.45C2032.64,1536.06 2012.29,1560.91 1982.9,1588.29C1969.07,1601.17 1932.84,1669.36 1915.2,1719.62C1905.57,1747.06 1902.32,1770.55 1904.02,1781.54C1919.41,1880.88 1943.44,1925.97 1970.81,1949.93C1992.16,1968.62 2016.81,1976.91 2046.94,1982.49C2095.7,1991.52 2164.28,1995.11 2262.94,2098.87C2278.43,2115.16 2304.97,2159.51 2317.41,2212.47C2329.29,2262.99 2328.22,2322.34 2285.95,2372.19C2237.3,2429.58 2174.51,2443.8 2116.8,2441.09C2053.21,2438.11 1995.02,2415.47 1962.68,2401.43C1884.31,2367.39 1820.25,2296.01 1759.8,2238.62C1742.5,2222.2 1714.84,2222.61 1698.07,2239.55C1681.29,2256.49 1681.72,2283.58 1699.02,2300C1766.5,2364.07 1839.79,2441.59 1927.28,2479.58C2008.37,2514.8 2218.73,2585.32 2353.13,2426.8C2415.09,2353.73 2419.91,2267.36 2402.51,2193.3C2385.68,2121.69 2347.79,2062.64 2326.84,2040.61C2229.4,1938.14 2155.15,1915.74 2098.76,1904.79C2083.7,1901.86 2070.02,1899.94 2057.57,1897.4C2046.69,1895.18 2036.98,1893.17 2029.01,1886.2C2010.6,1870.08 2001.16,1837.62 1990.85,1771.86ZM2445.62,1533.19C2452.88,1527.92 2461.86,1524.81 2471.58,1524.81C2458.77,1524.81 2450.75,1528.84 2445.62,1533.19Z"/>
            </g>
            <g transform="matrix(1.03661,0,0,0.937264,-297.727,157.162)">
                <path d="M2721.83,1738.71C2723.92,1603.65 2725.81,1441.63 2723.36,1349.46C2722.4,1313.64 2720.54,1287.36 2718.2,1275.18C2716.42,1265.85 2713.63,1259.57 2711.53,1255.87C2702.59,1240.16 2685.32,1232.89 2669.2,1238.05C2653.07,1243.21 2641.98,1259.55 2642.01,1278.12L2643.33,2252.19C2643.36,2275.18 2660.23,2293.79 2681.01,2293.77C2701.8,2293.76 2718.64,2275.12 2718.64,2252.13L2718.64,1956.55C2718.64,1935.34 2719.47,1885.71 2720.51,1822.37L2923.89,1825.14L2929.1,1825.25C2976.23,1826.21 3023.35,1827.15 3070.48,1827.74C3067.19,1945.67 3058.2,2268.18 3058.2,2268.18C3057.88,2279.51 3061.76,2290.5 3068.93,2298.6C3076.1,2306.7 3085.95,2311.22 3096.2,2311.11C3105.45,2311.01 3114.13,2307.14 3120.7,2301.07C3121.31,2300.5 3121.91,2299.91 3122.49,2299.31C3124.55,2297.16 3126.38,2294.79 3127.97,2292.28C3129.04,2290.61 3129.99,2288.88 3130.86,2287.1C3131.22,2286.38 3131.55,2285.66 3131.88,2284.92C3132.22,2284.13 3132.56,2283.34 3132.88,2282.53C3133.22,2281.68 3133.54,2280.82 3133.85,2279.96C3134.58,2277.93 3135.23,2275.87 3135.84,2273.81C3136.4,2271.9 3136.92,2269.98 3137.42,2268.05C3137.93,2266.06 3138.41,2264.06 3138.88,2262.06C3139.38,2259.92 3139.85,2257.77 3140.31,2255.62C3141.1,2251.94 3141.84,2248.26 3142.54,2244.57C3143.3,2240.62 3144.02,2236.67 3144.71,2232.71C3145.22,2229.79 3145.71,2226.86 3146.18,2223.93C3146.38,2222.74 3146.57,2221.55 3146.75,2220.35C3146.89,2219.39 3147.03,2218.43 3147.16,2217.47L3147.44,2215.18C3147.58,2213.98 3147.72,2212.78 3147.86,2211.58C3148.24,2208.16 3148.59,2204.74 3148.91,2201.31C3149.87,2190.93 3150.56,2180.52 3151.03,2170.11C3152.1,2146.13 3151.98,2122.12 3151.36,2098.13C3150.85,2078.27 3149.99,2058.42 3149.17,2038.57C3148.55,2023.49 3147.96,2008.41 3147.6,1993.32C3147.38,1984.2 3147.25,1975.07 3147.25,1965.95L3147.25,1921.01L3148.45,1828.32L3158.23,1828.34C3178.93,1828.34 3195.76,1809.85 3195.88,1786.95C3196.01,1764.06 3179.4,1745.34 3158.7,1745.06L3150.11,1744.94C3154.71,1584.81 3163.34,1424.94 3163.34,1264.27C3163.34,1241.54 3146.86,1223.01 3126.31,1222.63C3105.75,1222.26 3088.73,1240.18 3088.05,1262.91L3073.77,1743.9L2925.05,1741.87C2925.05,1741.87 2923.01,1741.83 2923.01,1741.83C2855.76,1740.46 2788.26,1739.1 2721.83,1738.71Z"/>
            </g>
        </g>
    </g>
</svg>
